<svg id="Layer_1" data-name="Layer 1" xmlns="http://www.w3.org/2000/svg" viewBox="0 0 216 216"><defs><style>.cls-1{fill:#09092b;}.cls-2{fill:#fff;}</style></defs><rect class="cls-1" width="216" height="216" rx="47.22"/><path class="cls-2" d="M143.77,175.26v15.28h-6v-1.46a5.38,5.38,0,0,1-2,1.3,6.44,6.44,0,0,1-2.37.44,6.29,6.29,0,0,1-4.66-1.78,7.31,7.31,0,0,1-1.76-5.35v-8.43h6.31v7.35a3.84,3.84,0,0,0,.5,2.23,1.73,1.73,0,0,0,1.48.67,1.93,1.93,0,0,0,1.54-.74,3.61,3.61,0,0,0,.61-2.33v-7.18Z" transform="translate(-72 -72)"/><path class="cls-2" d="M157.23,175v5.59a8.85,8.85,0,0,0-1.4-.11c-2.15,0-3.23,1.09-3.23,3.29v6.79h-6.31V175.26h6v1.65A6.18,6.18,0,0,1,157.23,175Z" transform="translate(-72 -72)"/><path class="cls-2" d="M172.63,176a6.92,6.92,0,0,1,2.68,2.76,9.24,9.24,0,0,1,0,8.36,6.91,6.91,0,0,1-2.68,2.78,7.35,7.35,0,0,1-3.7,1,5.36,5.36,0,0,1-4.19-1.54v1.26h-6V169.82h6.31v6.47a5.34,5.34,0,0,1,3.88-1.31A7.25,7.25,0,0,1,172.63,176Zm-3.42,9.15a3.23,3.23,0,0,0,.7-2.22,3.18,3.18,0,0,0-.7-2.2,2.43,2.43,0,0,0-3.57,0,3.18,3.18,0,0,0-.7,2.2,3.23,3.23,0,0,0,.7,2.22,2.39,2.39,0,0,0,3.57,0Z" transform="translate(-72 -72)"/><path class="cls-2" d="M194.7,175.26v15.28h-6v-1.46a5.43,5.43,0,0,1-1.95,1.3,6.53,6.53,0,0,1-2.38.44,6.29,6.29,0,0,1-4.66-1.78,7.31,7.31,0,0,1-1.76-5.35v-8.43h6.31v7.35a3.84,3.84,0,0,0,.5,2.23,1.73,1.73,0,0,0,1.48.67,1.93,1.93,0,0,0,1.54-.74,3.61,3.61,0,0,0,.61-2.33v-7.18Z" transform="translate(-72 -72)"/><path class="cls-2" d="M212.37,176.69a6.94,6.94,0,0,1,1.71,5.13v8.72h-6.31v-7.63c0-1.75-.62-2.62-1.87-2.62a2.14,2.14,0,0,0-1.71.74,3.43,3.43,0,0,0-.66,2.33v7.18h-6.31V175.26h6v1.51a5.86,5.86,0,0,1,2.07-1.34,7,7,0,0,1,2.54-.45A6.16,6.16,0,0,1,212.37,176.69Z" transform="translate(-72 -72)"/><path class="cls-2" d="M223.86,185.84l-1,1.09v3.61h-6.31V169.82h6.31v9.88l4.39-4.44h7.45l-6.31,6.62,6.82,8.66h-7.63Z" transform="translate(-72 -72)"/><path class="cls-2" d="M248.88,176.78q2.12,1.8,2.12,5.55v8.21h-5.86v-2c-.73,1.52-2.18,2.29-4.33,2.29a6.92,6.92,0,0,1-3.09-.63,4.42,4.42,0,0,1-2.58-4.12,3.91,3.91,0,0,1,1.73-3.44,9.45,9.45,0,0,1,5.25-1.17h2.54c-.2-1.19-1.16-1.79-2.88-1.79a7.05,7.05,0,0,0-2.09.33,5.92,5.92,0,0,0-1.82.87l-2-4.16a11.15,11.15,0,0,1,3.16-1.27,15.75,15.75,0,0,1,3.7-.46A9.28,9.28,0,0,1,248.88,176.78Zm-5,9.87a2.1,2.1,0,0,0,.78-1.09V184.5h-1.57q-1.92,0-1.92,1.29a1.11,1.11,0,0,0,.4.88,1.66,1.66,0,0,0,1.11.35A2.05,2.05,0,0,0,243.91,186.65Z" transform="translate(-72 -72)"/><circle class="cls-2" cx="45.45" cy="110.9" r="7.92"/></svg>